# xmcd
#
# Track frame offsets: 
#        150
#        2290
#        6162
#        12377
#        18195
#        24655
#        31052
#        40172
#        50237
#        57612
#        62672
#        69580
#        74207
#        81600
#        83237
#        85325
#        88075
#        92825
#        99352
#        102670
#        107780
#        111850
#        118645
#        125572
#        130012
#        132962
#        138097
#        144357
#        156855
#        165670
#        167545
#        175605
#        181665
#        194387
#        200407
#        204897
#
# Disc length: 3231 seconds
#
# Revision: 2
# Processed by: cddbd v1.5.2PL0 Copyright (c) Steve Scherf et al.
# Submitted via: ExactAudioCopy v0.99pb5
#
DISCID=ec0c9d24
DTITLE=Various Artist - This Is Boston, Not L.A.
DYEAR=1995
DGENRE=Hardcore
TTITLE0=Straight Jacket
TTITLE1=Uncontrollable
TTITLE2=Wired
TTITLE3=Desperate
TTITLE4=Pressure
TTITLE5=I Don't Wanna
TTITLE6=Options
TTITLE7=Religion Is The Opium Of The Masses
TTITLE8=Allegiance
TTITLE9=Angel
TTITLE10=Preskool Dropout
TTITLE11=Radio UNIX USA
TTITLE12=Green Beret
TTITLE13=Time Is Money
TTITLE14=Snob
TTITLE15=Lie Lie
TTITLE16=I Don't Know
TTITLE17=Rabies
TTITLE18=Narrow Mind
TTITLE19=Kill A Commie
TTITLE20=Have Fun
TTITLE21=Slam
TTITLE22=Broken Bones
TTITLE23=Idiots At Happy Hour
TTITLE24=Now Or Never
TTITLE25=Sacrifice Not Suicide
TTITLE26=It's Only Alcohol
TTITLE27=Trouble If You Hide
TTITLE28=Time Bomb
TTITLE29=This Is Boston, Not LA
TTITLE30=Selfish
TTITLE31=Empty Skull
TTITLE32=Voodoo Economics
TTITLE33=Machine Gun
TTITLE34=CETA Suckers
TTITLE35=Refrigerator Heaven
EXTD=
EXTT0=Jerry's Kids\n
EXTT1=Jerry's Kids\n
EXTT2=Jerry's Kids\n
EXTT3=Jerry's Kids\n
EXTT4=Jerry's Kids\n
EXTT5=Jerry's Kids\n
EXTT6=The Proletariat\n
EXTT7=The Proletariat\n
EXTT8=The Proletariat\n
EXTT9=Groinoids\n
EXTT10=The FU's\n
EXTT11=The FU's\n
EXTT12=The FU's\n
EXTT13=The FU's\n
EXTT14=Gang Green\n
EXTT15=Gang Green\n
EXTT16=Gang Green\n
EXTT17=Gang Green\n
EXTT18=Gang Green\n
EXTT19=Gang Green\n
EXTT20=Gang Green\n
EXTT21=Decadence\n
EXTT22=The Freeze\n
EXTT23=The Freeze\n
EXTT24=The Freeze\n
EXTT25=The Freeze\n
EXTT26=The Freeze\n
EXTT27=The Freeze\n
EXTT28=The Freeze\n
EXTT29=The Freeze\n
EXTT30=Gang Green\n
EXTT31=Groinoids\n
EXTT32=The Proletariats\n
EXTT33=Jerry's Kids\n
EXTT34=The FU's\n
EXTT35=The Freeze\n
PLAYORDER=
